<svg width="562" height="564" viewBox="0 0 562 564" fill="none" xmlns="http://www.w3.org/2000/svg">
<g clip-path="url(#clip0_10_32)">
<path d="M54.0452 475.121L49.0956 455.589C40.3197 451.867 31.3411 448.644 22.2024 445.935L21.5777 455.012L19.044 445.011C7.7104 441.77 0 440.343 0 440.343C0 440.343 10.4123 479.97 32.2586 510.264L57.7114 514.738L37.9378 517.591C40.6859 520.899 43.6391 524.031 46.78 526.969C78.5565 556.481 113.95 570.021 125.833 557.212C137.716 544.402 121.589 510.094 89.8123 480.585C79.9614 471.436 67.5866 464.094 55.1989 458.314L54.0452 475.121Z" fill="#F2F2F2"/>
<path d="M101.117 453.905L106.97 434.626C101.381 426.901 95.36 419.498 88.9371 412.452L83.7128 419.9L86.7098 410.028C78.681 401.394 72.8176 396.186 72.8176 396.186C72.8176 396.186 61.2622 435.494 64.3105 472.725L83.7883 489.719L65.3841 481.934C66.0281 486.188 66.9388 490.397 68.1109 494.537C80.067 536.235 103.37 566.132 120.16 561.312C136.949 556.493 140.868 518.783 128.912 477.084C125.206 464.157 118.405 451.472 110.786 440.118L101.117 453.905Z" fill="#F2F2F2"/>
<path d="M392.161 133.612H389.073V48.9829C389.073 42.5504 387.807 36.1809 385.347 30.238C382.887 24.2951 379.28 18.8953 374.735 14.3468C370.189 9.79829 364.792 6.19023 358.852 3.72861C352.913 1.26699 346.547 9.53674e-06 340.118 9.53674e-06H160.915C147.931 9.53674e-06 135.479 5.1607 126.298 14.3468C117.117 23.5329 111.96 35.9918 111.96 48.9829V513.272C111.96 519.705 113.226 526.074 115.686 532.017C118.146 537.96 121.752 543.36 126.298 547.909C130.844 552.457 136.241 556.065 142.181 558.527C148.12 560.988 154.486 562.255 160.915 562.255H340.118C353.102 562.255 365.553 557.094 374.734 547.908C383.915 538.722 389.073 526.263 389.073 513.272V193.853H392.16L392.161 133.612Z" fill="#E6E6E6"/>
<path d="M342.093 12.7389H318.703C319.779 15.3779 320.19 18.2411 319.899 21.0762C319.608 23.9114 318.625 26.6315 317.036 28.9969C315.447 31.3623 313.301 33.3004 310.787 34.6404C308.273 35.9804 305.468 36.6812 302.62 36.6811H199.957C197.108 36.681 194.304 35.98 191.79 34.6399C189.276 33.2997 187.13 31.3616 185.542 28.9963C183.953 26.6309 182.97 23.9109 182.679 21.0759C182.389 18.2408 182.799 15.3778 183.875 12.7389H162.027C152.331 12.7389 143.032 16.5929 136.176 23.4529C129.32 30.313 125.468 39.6173 125.468 49.3189V512.934C125.468 522.636 129.32 531.94 136.176 538.8C143.032 545.66 152.331 549.514 162.027 549.514H342.093C351.789 549.514 361.088 545.66 367.945 538.8C374.801 531.94 378.653 522.636 378.653 512.934V49.3181C378.652 39.6166 374.801 30.3126 367.944 23.4527C361.088 16.5927 351.789 12.7389 342.093 12.7389Z" fill="white"/>
<path d="M229.115 197.42C229.114 194.179 229.967 190.995 231.587 188.189C233.207 185.383 235.537 183.053 238.343 181.435C235.538 179.814 232.357 178.961 229.118 178.96C225.88 178.96 222.698 179.813 219.894 181.432C217.089 183.052 214.76 185.383 213.14 188.189C211.521 190.995 210.668 194.178 210.668 197.419C210.668 200.659 211.521 203.842 213.14 206.648C214.76 209.454 217.089 211.785 219.894 213.405C222.698 215.025 225.88 215.877 229.118 215.877C232.357 215.877 235.538 215.023 238.343 213.403C235.537 211.784 233.207 209.455 231.587 206.649C229.967 203.843 229.115 200.66 229.115 197.42Z" fill="#CCCCCC"/>
<path d="M252.307 197.42C252.306 194.179 253.158 190.995 254.778 188.189C256.398 185.383 258.728 183.053 261.534 181.435C258.73 179.814 255.549 178.961 252.31 178.96C249.071 178.96 245.89 179.813 243.085 181.432C240.28 183.052 237.951 185.383 236.332 188.189C234.713 190.995 233.86 194.178 233.86 197.419C233.86 200.659 234.713 203.842 236.332 206.648C237.951 209.454 240.28 211.785 243.085 213.405C245.89 215.025 249.071 215.877 252.31 215.877C255.549 215.877 258.73 215.023 261.534 213.403C258.729 211.784 256.399 209.455 254.779 206.649C253.159 203.843 252.306 200.66 252.307 197.42Z" fill="#CCCCCC"/>
<path d="M274.971 215.877C285.16 215.877 293.419 207.613 293.419 197.419C293.419 187.225 285.16 178.961 274.971 178.961C264.783 178.961 256.523 187.225 256.523 197.419C256.523 207.613 264.783 215.877 274.971 215.877Z" fill="#2196F3"/>
<path d="M305.803 255.072H198.284C197.26 255.07 196.279 254.663 195.555 253.939C194.831 253.215 194.424 252.233 194.423 251.209V143.629C194.424 142.605 194.831 141.623 195.555 140.899C196.279 140.175 197.26 139.767 198.284 139.766H305.803C306.826 139.767 307.807 140.175 308.531 140.899C309.255 141.623 309.662 142.605 309.663 143.629V251.209C309.662 252.233 309.255 253.215 308.531 253.939C307.807 254.663 306.826 255.07 305.803 255.072ZM198.284 141.312C197.67 141.313 197.081 141.557 196.647 141.992C196.212 142.426 195.968 143.016 195.968 143.63V251.209C195.968 251.824 196.212 252.413 196.647 252.847C197.081 253.282 197.67 253.526 198.284 253.527H305.803C306.417 253.526 307.006 253.282 307.44 252.847C307.874 252.413 308.118 251.824 308.119 251.209V143.63C308.118 143.016 307.874 142.426 307.44 141.992C307.006 141.557 306.417 141.313 305.803 141.312H198.284Z" fill="#CCCCCC"/>
<path d="M329.81 337.536H164.909V339.081H329.81V337.536Z" fill="#CCCCCC"/>
<path d="M170.116 327.888C172.992 327.888 175.324 325.555 175.324 322.677C175.324 319.8 172.992 317.467 170.116 317.467C167.24 317.467 164.909 319.8 164.909 322.677C164.909 325.555 167.24 327.888 170.116 327.888Z" fill="#2196F3"/>
<path d="M329.81 389.639H164.909V391.185H329.81V389.639Z" fill="#CCCCCC"/>
<path d="M170.116 379.992C172.992 379.992 175.324 377.659 175.324 374.781C175.324 371.904 172.992 369.571 170.116 369.571C167.24 369.571 164.909 371.904 164.909 374.781C164.909 377.659 167.24 379.992 170.116 379.992Z" fill="#2196F3"/>
<path d="M326.792 448.972H274.679C273.779 448.971 272.916 448.613 272.279 447.976C271.642 447.339 271.284 446.475 271.283 445.575V427.299C271.284 426.398 271.642 425.535 272.279 424.898C272.916 424.261 273.779 423.903 274.679 423.902H326.792C327.692 423.903 328.555 424.261 329.192 424.898C329.828 425.535 330.186 426.398 330.187 427.299V445.575C330.186 446.475 329.828 447.339 329.192 447.976C328.555 448.613 327.692 448.971 326.792 448.972Z" fill="#2196F3"/>
<path d="M187.103 327.888C189.98 327.888 192.311 325.555 192.311 322.677C192.311 319.8 189.98 317.467 187.103 317.467C184.227 317.467 181.896 319.8 181.896 322.677C181.896 325.555 184.227 327.888 187.103 327.888Z" fill="#2196F3"/>
<path d="M204.091 327.888C206.967 327.888 209.298 325.555 209.298 322.677C209.298 319.8 206.967 317.467 204.091 317.467C201.214 317.467 198.883 319.8 198.883 322.677C198.883 325.555 201.214 327.888 204.091 327.888Z" fill="#2196F3"/>
<path d="M187.103 379.992C189.98 379.992 192.311 377.659 192.311 374.781C192.311 371.904 189.98 369.571 187.103 369.571C184.227 369.571 181.896 371.904 181.896 374.781C181.896 377.659 184.227 379.992 187.103 379.992Z" fill="#2196F3"/>
<path d="M204.091 379.992C206.967 379.992 209.298 377.659 209.298 374.781C209.298 371.904 206.967 369.571 204.091 369.571C201.214 369.571 198.883 371.904 198.883 374.781C198.883 377.659 201.214 379.992 204.091 379.992Z" fill="#2196F3"/>
<path d="M559.901 564H18.1688C17.0091 564 16.0697 563.588 16.0697 563.08C16.0697 562.573 17.0091 562.16 18.1688 562.16H559.901C561.06 562.16 562 562.572 562 563.08C562 563.589 561.06 564 559.901 564Z" fill="#3F3D56"/>
<path d="M426.058 369.515C426.428 369.684 426.784 369.883 427.122 370.109L460.964 355.657L462.172 346.738L475.694 346.655L474.895 367.112L430.228 378.932C430.134 379.242 430.021 379.547 429.89 379.844C429.245 381.223 428.206 382.38 426.905 383.17C425.604 383.96 424.099 384.348 422.578 384.285C421.058 384.222 419.59 383.711 418.359 382.816C417.128 381.921 416.188 380.682 415.659 379.254C415.129 377.827 415.033 376.275 415.382 374.793C415.731 373.311 416.51 371.965 417.621 370.924C418.732 369.884 420.125 369.195 421.627 368.944C423.128 368.693 424.669 368.892 426.058 369.515Z" fill="#FFB8B8"/>
<path d="M480.612 554.898H471.361L466.961 519.199L480.613 519.199L480.612 554.898Z" fill="#FFB8B8"/>
<path d="M464.754 552.254H482.594V563.492H453.522C453.522 560.512 454.705 557.653 456.812 555.545C458.918 553.438 461.775 552.254 464.754 552.254Z" fill="#2F2E41"/>
<path d="M516.587 552.283L507.381 553.191L499.503 518.095L513.09 516.756L516.587 552.283Z" fill="#FFB8B8"/>
<path d="M500.547 551.207L518.301 549.457L519.402 560.642L490.47 563.493C490.325 562.024 490.471 560.541 490.899 559.129C491.328 557.717 492.03 556.403 492.965 555.262C493.901 554.121 495.052 553.175 496.353 552.48C497.654 551.784 499.079 551.351 500.547 551.207Z" fill="#2F2E41"/>
<path d="M483.187 308.873C493.422 308.873 501.718 300.572 501.718 290.331C501.718 280.09 493.422 271.789 483.187 271.789C472.952 271.789 464.655 280.09 464.655 290.331C464.655 300.572 472.952 308.873 483.187 308.873Z" fill="#FFB8B8"/>
<path d="M469.294 547.679C468.499 547.681 467.729 547.402 467.12 546.891C466.51 546.381 466.101 545.671 465.963 544.888C461.175 518.294 445.525 431.34 445.151 428.932C445.142 428.876 445.138 428.82 445.139 428.764V422.281C445.138 422.045 445.212 421.815 445.35 421.623L447.417 418.725C447.515 418.586 447.644 418.471 447.794 418.389C447.943 418.307 448.11 418.261 448.28 418.253C460.067 417.701 498.67 416.08 500.535 418.411C502.408 420.754 501.746 427.853 501.594 429.252L501.602 429.398L518.944 540.371C519.08 541.256 518.862 542.159 518.338 542.885C517.813 543.61 517.024 544.1 516.141 544.248L505.309 546.033C504.503 546.163 503.676 545.999 502.98 545.57C502.284 545.142 501.765 544.477 501.518 543.698C498.167 532.987 486.933 496.954 483.04 483.011C483.016 482.923 482.96 482.846 482.884 482.796C482.807 482.746 482.715 482.725 482.624 482.738C482.533 482.751 482.451 482.796 482.391 482.866C482.331 482.935 482.299 483.024 482.3 483.116C482.495 496.407 482.965 530.317 483.127 542.029L483.145 543.291C483.152 544.145 482.839 544.97 482.267 545.604C481.695 546.239 480.906 546.635 480.057 546.715L469.611 547.665C469.505 547.674 469.399 547.679 469.294 547.679Z" fill="#2F2E41"/>
<path d="M471.426 316.164C468.191 318.088 466.256 321.623 465.146 325.22C463.09 331.879 461.852 338.764 461.46 345.723L460.287 366.56L445.759 421.799C458.35 432.459 465.614 430.037 482.564 421.317C499.514 412.597 501.451 424.224 501.451 424.224L504.841 377.223L509.684 325.862C508.597 324.552 507.366 323.369 506.016 322.334C501.539 318.851 496.332 316.43 490.784 315.254C485.237 314.077 479.496 314.176 473.992 315.543L471.426 316.164Z" fill="#2196F3"/>
<path d="M466.707 380.671C467.097 380.818 467.476 380.996 467.839 381.203L501.3 364.445L501.856 355.367L515.659 354.414L516.398 375.109L471.681 389.906C471.316 391.473 470.483 392.891 469.292 393.973C468.102 395.054 466.61 395.748 465.016 395.961C463.422 396.173 461.802 395.896 460.369 395.164C458.937 394.433 457.761 393.283 456.998 391.866C456.235 390.45 455.921 388.835 456.098 387.235C456.274 385.636 456.934 384.129 457.988 382.913C459.042 381.698 460.44 380.833 461.998 380.432C463.555 380.032 465.198 380.115 466.707 380.671Z" fill="#FFB8B8"/>
<path d="M509.442 326.097C517.674 329.005 519.125 360.503 519.125 360.503C509.439 355.173 497.816 363.895 497.816 363.895C497.816 363.895 495.395 355.657 492.489 344.997C491.612 341.999 491.507 338.827 492.184 335.777C492.861 332.727 494.299 329.898 496.363 327.553C496.363 327.553 501.209 323.188 509.442 326.097Z" fill="#2196F3"/>
<path d="M499.803 295.235C497.494 293.386 494.344 296.746 494.344 296.746L492.497 280.112C492.497 280.112 480.952 281.495 473.563 279.65C466.175 277.805 465.02 286.35 465.02 286.35C464.639 282.898 464.562 279.419 464.789 275.954C465.251 271.795 471.254 267.637 481.876 264.864C492.497 262.092 498.038 274.106 498.038 274.106C505.427 277.802 502.112 297.083 499.803 295.235Z" fill="#2F2E41"/>
</g>
<defs>
<clipPath id="clip0_10_32">
<rect width="562" height="564" fill="white"/>
</clipPath>
</defs>
</svg>
