<svg width="461" height="552" viewBox="0 0 461 552" fill="none" xmlns="http://www.w3.org/2000/svg">
<path d="M369.742 190.728H324.261V175.737C324.261 150.609 344.641 130.209 369.742 130.209H369.742V190.728V190.728Z" fill="#2F2E41"/>
<path d="M359.661 162.743L367.481 197.952L321.658 190.335L340.331 157.036L359.661 162.743Z" fill="#A0616A"/>
<path opacity="0.1" d="M359.661 162.743L367.481 197.952L321.658 190.335L340.331 157.036L359.661 162.743Z" fill="black"/>
<path d="M315.729 303.044H359.661V237.956H315.729V303.044Z" fill="#A0616A"/>
<path d="M388.217 356.258L378.552 408.152C378.552 408.152 384.703 444.214 366.251 481.156L353.95 518.977L335.498 516.338C335.498 516.338 346.921 488.192 346.921 475.878C346.921 463.564 349.557 416.068 349.557 416.068L348.239 361.871L388.217 356.258Z" fill="#2F2E41"/>
<path d="M332.863 515.459C332.863 515.459 353.95 507.543 355.707 518.977L354.829 524.254C354.829 524.254 362.737 548.003 351.314 549.762C339.892 551.521 329.348 554.16 328.469 548.882C327.591 543.605 327.604 537.017 329.794 532.395C331.984 527.773 332.863 515.459 332.863 515.459Z" fill="#2F2E41"/>
<path d="M321.703 348.208L316.57 400.745C316.57 400.745 300.643 433.673 308.104 474.294L309.412 514.048L327.869 516.65C327.869 516.65 324.716 486.434 328.137 474.606C331.558 462.778 342.222 416.422 342.222 416.422L358.545 364.729L321.703 348.208Z" fill="#2F2E41"/>
<path d="M330.645 516.539C330.645 516.539 312.589 503.064 307.724 513.558L307.102 518.872C307.102 518.872 292.908 539.482 303.391 544.352C313.874 549.222 323.269 554.692 325.579 549.867C327.889 545.042 329.706 538.711 328.887 533.661C328.068 528.612 330.645 516.539 330.645 516.539Z" fill="#2F2E41"/>
<path d="M377.674 273.139C398.339 292.443 399.872 322.987 387.778 359.336C387.778 359.336 349.117 385.723 321.001 352.299L306.942 284.573L377.674 273.139Z" fill="#2F2E41"/>
<path d="M342.967 179.025L364.933 182.544L363.176 237.956L387.778 287.212L356.147 303.044C356.147 303.044 331.544 256.427 327.151 227.401C322.758 198.376 325.394 177.266 325.394 177.266L342.967 179.025Z" fill="#2196F3"/>
<path d="M326.273 180.784L304.306 184.303L306.064 239.715L300.792 290.73L313.093 304.803C313.093 304.803 337.695 258.186 342.088 229.16C346.481 200.135 343.845 179.025 343.845 179.025L326.273 180.784Z" fill="#2196F3"/>
<path d="M352.632 182.104L357.465 180.784C357.465 180.784 374.598 178.585 377.234 185.622C379.87 192.658 378.991 233.998 378.991 233.998C378.991 233.998 383.525 284.736 365.882 285.314C348.239 285.892 351.753 243.673 351.753 243.673L352.632 182.104Z" fill="#2196F3"/>
<path d="M351.993 172.406C364.553 172.406 374.734 162.214 374.734 149.642C374.734 137.069 364.553 126.878 351.993 126.878C339.434 126.878 329.253 137.069 329.253 149.642C329.253 162.214 339.434 172.406 351.993 172.406Z" fill="#A0616A"/>
<path d="M323.637 183.863L318.804 182.543C318.804 182.543 301.67 180.345 299.034 187.381C296.398 194.418 297.277 235.757 297.277 235.757C297.277 235.757 292.743 286.495 310.387 287.073C328.03 287.651 324.515 245.432 324.515 245.432L323.637 183.863Z" fill="#2196F3"/>
<path d="M338.857 180.971C333.979 179.732 328.448 184.948 326.502 192.624C325.683 195.679 325.607 198.887 326.28 201.978L324.183 210.704L324.029 210.696L307.495 249.704C303.65 258.773 304.056 269.186 308.96 277.728C311.877 282.81 315.706 286.226 320.202 282.739C327.663 276.952 332.536 243.819 334.761 224.786L339.905 205.439C341.97 203.043 343.431 200.186 344.167 197.108C346.113 189.435 343.736 182.21 338.857 180.971V180.971Z" fill="#A0616A"/>
<path d="M308.458 168.058C309.614 164.537 311.898 161.455 312.919 157.892C314.276 153.162 317.164 163.656 317.446 158.743C317.981 149.405 332.218 125.384 340.346 120.77C348.474 116.156 353.142 117.547 361.422 121.881C361.422 121.881 365.442 122.136 370.446 124.61C375.45 127.083 379.954 131.043 381.901 136.279C383.443 140.429 383.272 144.987 383.788 149.385C385.224 161.637 392.085 173.289 390.612 185.537C390.153 189.359 388.702 193.31 385.581 195.558C382.46 197.805 377.417 197.561 375.363 194.307C374.662 193.197 374.365 191.88 373.765 190.713C373.164 189.545 372.078 188.456 370.767 188.493C368.795 188.547 367.792 191.195 368.569 193.01C369.347 194.824 371.173 195.919 372.888 196.894C368.804 198.733 363.736 198.161 360.164 195.455C356.592 192.75 354.663 188.024 355.32 183.589C356.246 177.339 365.342 178.633 366.414 172.406C367.194 167.873 369.933 160.288 369.187 155.749C368.441 151.21 364.858 156.706 368.633 154.083C364.479 156.088 355.596 142.376 351.248 140.841C346.9 139.305 343.214 135.98 341.237 131.81C336.625 138.502 332.569 136.685 330.917 144.645C329.265 152.604 330.793 170.688 337.593 175.132C334.871 176.991 332.702 179.649 331.425 182.69C330.702 184.412 330.233 186.297 329.032 187.727C326.739 190.459 322.504 190.625 319.129 189.477C314.944 188.052 311.366 184.924 309.393 180.964C307.42 177.004 307.077 172.261 308.458 168.058L308.458 168.058Z" fill="#2F2E41"/>
<path d="M0 550.727C0 551.308 0.46571 551.774 1.04564 551.774H459.954C460.534 551.774 461 551.308 461 550.727C461 550.146 460.534 549.68 459.954 549.68H1.04564C0.46571 549.68 0 550.146 0 550.727Z" fill="#3F3D56"/>
<path d="M298.773 0.879414H118.063C97.5703 0.879414 80.9578 17.5093 80.9578 38.0234V513.369C80.9578 533.883 97.5703 550.513 118.063 550.513H298.773C319.266 550.513 335.879 533.883 335.879 513.369V38.0234C335.879 17.5093 319.266 0.879414 298.773 0.879414H298.773Z" fill="white"/>
<path d="M298.773 551.392H118.063C97.1188 551.392 80.0791 534.335 80.0791 513.369V38.0236C80.0791 17.0575 97.1188 0 118.063 0H298.774C319.718 0 336.757 17.0575 336.757 38.0236V513.369C336.757 534.335 319.718 551.392 298.774 551.392H298.773ZM118.063 1.75913C98.0875 1.75913 81.8364 18.0272 81.8364 38.0236V513.369C81.8364 533.365 98.0875 549.633 118.063 549.633H298.774C318.749 549.633 335 533.365 335 513.369V38.0236C335 18.0272 318.749 1.75913 298.774 1.75913H118.063Z" fill="#3F3D56"/>
<path d="M66.0248 83.1773C64.4383 83.1773 63.1482 84.4688 63.1482 86.0569V109.094C63.1482 110.682 64.4383 111.974 66.0248 111.974C67.6113 111.974 68.9014 110.682 68.9014 109.094V86.0569C68.9014 84.4688 67.6113 83.1773 66.0248 83.1773Z" fill="#3F3D56"/>
<path d="M311.863 76.9278H239.228C236.147 76.9278 233.64 74.4187 233.64 71.3346C233.64 68.2506 236.147 65.7414 239.228 65.7414H311.863C314.944 65.7414 317.451 68.2506 317.451 71.3346C317.451 74.4187 314.944 76.9278 311.863 76.9278Z" fill="#E6E6E6"/>
<path d="M243.721 120.912H173.116C171.336 120.912 169.887 119.463 169.887 117.681C169.887 115.899 171.336 114.45 173.116 114.45H243.721C245.501 114.45 246.949 115.899 246.949 117.681C246.949 119.463 245.501 120.912 243.721 120.912Z" fill="#2196F3"/>
<path d="M68.8178 136.862C100.311 136.862 125.841 111.843 125.841 80.9815C125.841 50.1198 100.311 25.1014 68.8178 25.1014C37.3247 25.1014 11.7944 50.1198 11.7944 80.9815C11.7944 111.843 37.3247 136.862 68.8178 136.862Z" fill="#2196F3"/>
<path d="M88.1714 52.7953C80.5798 66.6332 72.9882 80.4712 65.3966 94.3091C60.5582 85.7513 55.7463 77.1785 50.8959 68.6274C49.2209 65.6742 44.6645 68.3304 46.3439 71.291C51.9664 81.2036 57.5307 91.1492 63.1533 101.062C64.1146 102.757 66.754 102.796 67.7054 101.062C76.0448 85.8608 84.3842 70.6598 92.7236 55.4589C94.3577 52.4802 89.8068 49.8143 88.1714 52.7953H88.1714Z" fill="white"/>
<path d="M143.927 12.8925H103.617C103.467 12.8925 103.344 13.0147 103.344 13.1654V17.863C103.344 18.0137 103.467 18.1359 103.617 18.1359H143.927C144.078 18.1359 144.2 18.0137 144.2 17.863V13.1654C144.2 13.0147 144.078 12.8925 143.927 12.8925Z" fill="#E6E6E6"/>
<path d="M279.705 18.1359C282.02 18.1359 283.896 16.2578 283.896 13.9412C283.896 11.6245 282.02 9.74652 279.705 9.74652C277.391 9.74652 275.515 11.6245 275.515 13.9412C275.515 16.2578 277.391 18.1359 279.705 18.1359Z" fill="#E6E6E6"/>
<path d="M291.229 18.1359C293.543 18.1359 295.419 16.2578 295.419 13.9412C295.419 11.6245 293.543 9.74652 291.229 9.74652C288.915 9.74652 287.039 11.6245 287.039 13.9412C287.039 16.2578 288.915 18.1359 291.229 18.1359Z" fill="#E6E6E6"/>
<path d="M302.752 18.1359C305.066 18.1359 306.942 16.2578 306.942 13.9412C306.942 11.6245 305.066 9.74652 302.752 9.74652C300.438 9.74652 298.562 11.6245 298.562 13.9412C298.562 16.2578 300.438 18.1359 302.752 18.1359Z" fill="#E6E6E6"/>
<path d="M117.623 138.211C117.623 138.792 118.089 139.258 118.669 139.258H298.168C298.747 139.258 299.213 138.792 299.213 138.211C299.213 137.631 298.747 137.164 298.168 137.164H118.669C118.089 137.164 117.623 137.631 117.623 138.211Z" fill="#3F3D56"/>
<path d="M280.954 220.477H173.234C171.454 220.477 170.006 219.028 170.006 217.246C170.006 215.464 171.454 214.015 173.234 214.015H280.954C282.734 214.015 284.182 215.464 284.182 217.246C284.182 219.028 282.734 220.477 280.954 220.477Z" fill="#2196F3"/>
<path d="M280.954 267.094H173.234C171.454 267.094 170.006 265.645 170.006 263.863C170.006 262.081 171.454 260.632 173.234 260.632H280.954C282.734 260.632 284.182 262.081 284.182 263.863C284.182 265.645 282.734 267.094 280.954 267.094Z" fill="#2196F3"/>
<path d="M280.954 313.711H173.234C171.454 313.711 170.006 312.261 170.006 310.48C170.006 308.698 171.454 307.248 173.234 307.248H280.954C282.734 307.248 284.182 308.698 284.182 310.48C284.182 312.261 282.734 313.711 280.954 313.711Z" fill="#2196F3"/>
<path d="M140.562 224.763C144.929 224.763 148.47 221.218 148.47 216.847C148.47 212.475 144.929 208.93 140.562 208.93C136.195 208.93 132.654 212.475 132.654 216.847C132.654 221.218 136.195 224.763 140.562 224.763Z" fill="#2196F3"/>
<path d="M139.683 230.04V228.281C146.224 228.281 151.545 222.954 151.545 216.407C151.545 209.859 146.224 204.533 139.683 204.533V202.773C147.193 202.773 153.302 208.889 153.302 216.407C153.302 223.924 147.193 230.04 139.683 230.04Z" fill="#3F3D56"/>
<path d="M140.562 271.38C144.929 271.38 148.47 267.835 148.47 263.463C148.47 259.092 144.929 255.547 140.562 255.547C136.195 255.547 132.654 259.092 132.654 263.463C132.654 267.835 136.195 271.38 140.562 271.38Z" fill="#2196F3"/>
<path d="M139.683 276.657V274.898C146.224 274.898 151.545 269.571 151.545 263.024C151.545 256.476 146.224 251.15 139.683 251.15V249.39C147.193 249.39 153.302 255.506 153.302 263.024C153.302 270.541 147.193 276.657 139.683 276.657Z" fill="#3F3D56"/>
<path d="M140.562 317.996C144.929 317.996 148.47 314.452 148.47 310.08C148.47 305.708 144.929 302.164 140.562 302.164C136.195 302.164 132.654 305.708 132.654 310.08C132.654 314.452 136.195 317.996 140.562 317.996Z" fill="#2196F3"/>
<path d="M139.683 323.274V321.515C146.224 321.515 151.545 316.188 151.545 309.641C151.545 303.093 146.224 297.766 139.683 297.766V296.007C147.193 296.007 153.302 302.123 153.302 309.641C153.302 317.158 147.193 323.274 139.683 323.274Z" fill="#3F3D56"/>
<path d="M337.411 179.212C342.29 177.973 347.82 183.189 349.766 190.865C350.585 193.92 350.662 197.128 349.989 200.219L352.085 208.945L352.239 208.937L368.774 247.944C372.618 257.014 372.212 267.426 367.309 275.969C364.392 281.051 360.562 284.467 356.066 280.98C348.606 275.193 343.733 242.06 341.508 223.027L336.364 203.68C334.299 201.283 332.837 198.427 332.102 195.349C330.155 187.676 332.533 180.451 337.411 179.212V179.212Z" fill="#A0616A"/>
<path d="M356.194 200.587L337.695 213.751L346.944 272.061L358.545 287.079L372.058 282.401L376.009 254.836L371.359 228.179L356.194 200.587Z" fill="#2196F3"/>
</svg>
