<svg width="36" height="34" viewBox="0 0 36 34" fill="none" xmlns="http://www.w3.org/2000/svg">
<path d="M11.0506 29.1438H6.63038C5.40997 29.1438 4.42025 28.0562 4.42025 26.7151V7.28595C4.42025 5.94488 5.40997 4.8573 6.63038 4.8573H11.0506C12.271 4.8573 13.2608 3.76972 13.2608 2.42865C13.2608 1.08758 12.2731 0 11.0506 0H6.63038C2.96848 0 0 3.26198 0 7.28595V26.7151C0 30.7391 2.96848 34.0011 6.63038 34.0011H11.0506C12.271 34.0011 13.2608 32.9135 13.2608 31.5724C13.2608 30.2314 12.2731 29.1438 11.0506 29.1438ZM34.7128 15.2853L25.8723 5.57071C25.0083 4.62126 23.6097 4.62278 22.747 5.57071C21.8837 6.5194 21.8837 8.05628 22.747 9.00497L27.82 14.5719H13.2608C12.0383 14.5719 11.0506 15.6572 11.0506 17.0005C11.0506 18.3439 12.039 19.4292 13.2608 19.4292H27.82L22.7519 24.9984C21.8885 25.9471 21.8885 27.484 22.7519 28.4326C23.6152 29.3813 25.0138 29.3813 25.8771 28.4326L34.7176 18.7181C35.5761 17.7671 35.5761 16.234 34.7128 15.2853Z" fill="#CE1935"/>
</svg>
